<?xml version="1.0" encoding="UTF-8" standalone="no"?>
<svg
   xmlns:dc="http://purl.org/dc/elements/1.1/"
   xmlns:cc="http://creativecommons.org/ns#"
   xmlns:rdf="http://www.w3.org/1999/02/22-rdf-syntax-ns#"
   xmlns:svg="http://www.w3.org/2000/svg"
   xmlns="http://www.w3.org/2000/svg"
   xmlns:sodipodi="http://sodipodi.sourceforge.net/DTD/sodipodi-0.dtd"
   xmlns:inkscape="http://www.inkscape.org/namespaces/inkscape"
   version="1.1"
   width="90"
   height="90"
   viewBox="-0.5 -0.5 215 145"
   >
  <g
     id="g616"
     transform="translate(-19.046861,-50.549638)">
    <g
       data-cell-id="0"
       id="g614">
      <g
         data-cell-id="1"
         id="g612">
        <g
           data-cell-id="YF-SXcgdx01_akOxk3-O-7"
           id="g588">
          <g
             id="g586">
            <path
               d="m 78.08,78 h 50.02 q 10,0 10,-10 V 58 q 0,-10 10,-10 h 49.98"
               fill="none"
               stroke="#78c2ad"
               stroke-width="23"
               stroke-miterlimit="10"
               pointer-events="stroke"
               id="path584" />
          </g>
        </g>
        <g
           data-cell-id="YF-SXcgdx01_akOxk3-O-8"
           id="g594">
          <g
             id="g592">
            <path
               d="m 78.08,108 h 60.02 q 10,0 10,10 v 5 q 0,5 10,5 h 39.98"
               fill="none"
               stroke="#000000"
               stroke-width="30"
               stroke-miterlimit="10"
               pointer-events="stroke"
               id="path590" />
          </g>
        </g>
        <g
           data-cell-id="YF-SXcgdx01_akOxk3-O-15"
           id="g604">
          <g
             id="g602">
            <path
               d="m 70,99 h 3.5 L 67,107 60.5,99 H 64 V 98 87 h -3.5 l 6.5,-8 6.5,8 H 70 v 11 z"
               fill="#000000"
               stroke="#000000"
               stroke-width="2"
               stroke-miterlimit="1.42"
               pointer-events="all"
               id="path596" />
            <path
               d="m 70,99 h 3.5 L 67,107 60.5,99 H 64"
               fill="none"
               stroke="#000000"
               stroke-width="2"
               stroke-miterlimit="4"
               pointer-events="all"
               id="path598" />
            <path
               d="m 64,87 h -3.5 l 6.5,-8 6.5,8 H 70"
               fill="none"
               stroke="#000000"
               stroke-width="2"
               stroke-miterlimit="4"
               pointer-events="all"
               id="path600" />
          </g>
        </g>
        <g
           data-cell-id="zbDOob6OFQTTqO6CQ0mM-5"
           id="g610">
          <g
             id="g608">
            <path
               d="m 7,18 v 0 0 L 77,43 7,68 v 0 0 L 27,43 Z"
               fill="#ffffff"
               stroke="#000000"
               stroke-miterlimit="10"
               transform="rotate(-130,42,43)"
               pointer-events="all"
               id="path606" />
          </g>
        </g>
      </g>
    </g>
  </g>
</svg>
